<svg xmlns="http://www.w3.org/2000/svg" viewBox="0 0 453.56 157.15"><defs><style>.cls-1{fill:#231f20;}</style></defs><g id="Layer_2" data-name="Layer 2"><g id="Layer_1-2" data-name="Layer 1"><path class="cls-1" d="M5.88,0H34.5V31.74H43L64.17,0H93.31V4.29L64.82,44.62,93.44,85.87v2.6H62.09l-20-32H34.5v32H5.88Z"/><path class="cls-1" d="M98.39,0H127V88.47H98.39Z"/><path class="cls-1" d="M139.24,88.47V0h28.62V63.75h40.59V88.47Z"/><path class="cls-1" d="M213,88.47V0h28.61V63.75h40.6V88.47Z"/><path class="cls-1" d="M286.77,88.47V0h73.12V24.71H314.1v7.81h36.29V55.29H314.1v8.46h45.79V88.47Z"/><path class="cls-1" d="M369.13,0h48c18.08,0,31.61,10.15,31.61,30.18,0,11.45-6.63,20.56-16.91,25L453.56,82v6.5H424.94L402.43,58h-4.68V88.47H369.13Zm28.62,38.25h14.57c4.95,0,7-3.52,7-6.77a6.61,6.61,0,0,0-7-6.77H397.75Z"/><path class="cls-1" d="M4.44,133.61c4.88,3.3,11.5,6.1,18.38,6.1,3.57,0,5.66-1.14,5.66-3.75,0-1.48-1.48-2.53-3.83-3.22l-9.32-2.88c-9.67-3-15-7.75-15-16.72C.35,102.42,9,94.06,24.91,94.06a54.56,54.56,0,0,1,21.61,4.7L41.2,114.09c-5-2.7-11.67-4.79-17.16-4.79-3.13,0-4.53,1.13-4.53,3,0,1.31.79,2.09,3.31,2.87l9.84,3c11.24,3.39,15.16,8.88,15.16,16.64,0,11.67-9.58,20.12-25.35,20.12C13.5,155,4,152,0,149.81Z"/><path class="cls-1" d="M52.87,94.84H84.49c12.1,0,22.38,7.14,22.38,22.56,0,13.94-10.28,22.21-22.38,22.21H72v14.46H52.87ZM72,123.07h9.41a5.84,5.84,0,0,0,0-11.68H72Z"/><path class="cls-1" d="M109.91,94.84h32.15c12.11,0,21.17,6.8,21.17,20.2,0,7.67-4.45,13.77-11.33,16.73l14.55,17.95v4.35H147.29L132.21,133.7h-3.13v20.37H109.91Zm19.17,25.61h9.75a4.38,4.38,0,0,0,4.71-4.53,4.42,4.42,0,0,0-4.71-4.53h-9.75Z"/><path class="cls-1" d="M265.61,137.35c6.79,0,10.89-3.14,14.37-5.75l8.54,14A34.87,34.87,0,0,1,264.65,155c-18.21,0-31.88-13.15-31.88-30.49S246.44,94,264.65,94a34.87,34.87,0,0,1,23.87,9.32l-8.54,14c-3.48-2.62-7.58-5.75-14.37-5.75-8.19,0-13.07,6-13.07,12.89S257.42,137.35,265.61,137.35Z"/><path class="cls-1" d="M290.87,94.84H310v21.25h5.66l14.2-21.25h19.52v2.88l-19.08,27,19.16,27.62v1.74h-21l-13.41-21.43H310v21.43H290.87Z"/><path class="cls-1" d="M351.78,154.07V94.84h49v16.55H370.07v5.23h24.3v15.24h-24.3v5.67h30.67v16.54Z"/><path class="cls-1" d="M437.66,111.48v42.59H418.49V111.48H402.82V94.84h50.52v16.64Z"/><path class="cls-1" d="M231.92,123.45c0-1-2.6-.27-3.33-2.26v.33c0-.38-.07-.77-.11-1.14.46-2,3-1.77,2.86-2.69s-2.61.18-3.68-1.66l0,.2c-.08-.34-.18-.67-.28-1,.14-2,2.67-2.25,2.35-3.12s-2.53.63-3.91-1l.09.23c-.15-.32-.31-.64-.47-1-.23-2,2.24-2.69,1.77-3.5s-2.39,1.06-4-.3l.14.25c-.21-.31-.42-.61-.64-.91-.57-1.92,1.73-3,1.13-3.74s-2.16,1.46-4,.4l.18.22c-.25-.26-.52-.51-.78-.76-.92-1.8,1.17-3.3.46-3.91s-1.88,1.82-3.88,1.1l.24.2-.93-.64c-1.21-1.61.58-3.45-.22-3.92s-1.54,2.12-3.63,1.76l.18.1-1-.43c-1.44-1.38,0-3.48-.88-3.81s-1.14,2.35-3.27,2.37l.22.08c-.34-.1-.68-.18-1-.26-1.68-1.11-.63-3.44-1.55-3.61s-.72,2.51-2.81,2.89l.28,0-1.09-.08c-1.86-.8-1.23-3.28-2.16-3.28S198,93.25,196,94h.34l-1.14.11c-2-.46-1.77-3-2.7-2.86s.19,2.6-1.65,3.68l.2,0-1,.28c-2-.12-2.26-2.66-3.13-2.34s.63,2.53-1,3.9l.24-.08-1,.46c-2,.24-2.69-2.23-3.5-1.76s1.06,2.38-.3,4l.25-.15c-.3.21-.61.42-.9.65-1.93.57-3-1.73-3.76-1.13s1.47,2.16.41,4l.23-.19c-.26.25-.51.52-.76.78-1.81.93-3.31-1.17-3.92-.45s1.82,1.88,1.1,3.88l.21-.25c-.22.31-.44.62-.64.93-1.62,1.21-3.46-.58-3.93.23s2.12,1.53,1.76,3.63l.11-.19c-.15.32-.3.64-.44,1-1.38,1.44-3.49,0-3.8.89s2.34,1.14,2.35,3.27l.09-.23c-.1.34-.18.68-.26,1-1.11,1.69-3.45.63-3.61,1.55s2.51.72,2.89,2.81l0-.28c0,.37-.06.73-.08,1.1-.8,1.85-3.29,1.22-3.29,2.15s2.6.28,3.34,2.27v-.34c0,.38.06.76.11,1.14-.46,2-3,1.78-2.86,2.7s2.6-.18,3.67,1.65l0-.19c.09.33.18.66.28,1-.13,2-2.67,2.25-2.35,3.13s2.54-.63,3.91,1l-.08-.24c.14.33.3.65.46,1,.23,2-2.23,2.7-1.77,3.51s2.39-1.07,4,.29L174,141c.21.3.43.61.65.9.56,1.92-1.74,3-1.14,3.75s2.17-1.46,4-.41l-.18-.21.78.75c.92,1.81-1.17,3.31-.45,3.91s1.87-1.81,3.88-1.1l-.24-.2c.3.22.61.44.93.64,1.2,1.62-.59,3.46.22,3.92s1.53-2.11,3.63-1.75l-.18-.11c.31.15.63.3,1,.43,1.44,1.38,0,3.49.88,3.81s1.15-2.35,3.27-2.36l-.22-.08,1,.26c1.67,1.1.62,3.44,1.54,3.6s.72-2.51,2.81-2.89l-.27,0,1.09.08c1.85.8,1.22,3.28,2.15,3.28s.27-2.6,2.27-3.33h-.34l1.15-.11c2,.46,1.77,3,2.69,2.86s-.18-2.61,1.65-3.68l-.19,0c.33-.08.66-.18,1-.28,2,.13,2.25,2.67,3.13,2.35s-.64-2.53,1-3.91l-.23.09,1-.47c2-.23,2.69,2.24,3.5,1.77s-1.07-2.39.29-4l-.24.14.91-.64c1.91-.56,3,1.73,3.74,1.13s-1.46-2.16-.41-4l-.21.18q.39-.39.75-.78c1.81-.91,3.31,1.17,3.91.46s-1.81-1.88-1.1-3.88l-.19.23c.21-.3.43-.61.63-.92,1.62-1.2,3.45.58,3.92-.22s-2.11-1.54-1.75-3.63l-.11.18c.15-.32.3-.64.44-1,1.38-1.43,3.48,0,3.8-.88s-2.35-1.14-2.36-3.27l-.08.21c.1-.33.18-.67.26-1,1.11-1.68,3.44-.63,3.6-1.55s-2.51-.72-2.89-2.81l0,.28c0-.37.06-.73.08-1.1C229.44,123.76,231.92,124.38,231.92,123.45Zm-33.25,14a13.59,13.59,0,1,1,13.59-13.59A13.58,13.58,0,0,1,198.67,137.49Z"/></g></g></svg>