<svg xmlns="http://www.w3.org/2000/svg" viewBox="0 0 284.92 187.53"><defs><style>.cls-1{fill:#231f20;}</style></defs><g id="Layer_2" data-name="Layer 2"><g id="Layer_1-2" data-name="Layer 1"><path class="cls-1" d="M284.91,68.47c-.26-11.88-5.92-20.59-21.28-26.35l9.43-8.47h0L281.39,7.9C273.43,4.1,259,0,245,0s-24.56,3.87-31.36,10.14h0l.27-.26L164.27,54.51l-2.15-3L193.07,6.15,193,1.31H160.28L127.66,30.62,127,1.31H94.91L0,86.58l2.19,99.49H34.3l19.56-17.58,11.37,17.58h35.16l8.76-7.87,1.29.7c6.8,3.66,22.81,8.63,37.84,8.63a55,55,0,0,0,22.21-4.21c1.23-.54,2.41-1.13,3.53-1.76.56-.32,1.11-.65,1.64-1a34.06,34.06,0,0,0,4.43-3.35L275,92l-.42.36h0A29.82,29.82,0,0,0,284.91,68.47ZM245,2.78a91.12,91.12,0,0,1,33,6.63l-6.57,20.28c-9-4.28-19.13-6.87-27.28-6.87-3.82,0-6.53.88-8.29,2.68a7.1,7.1,0,0,0-2,5.28c.09,4.49,3.71,6.22,7.63,7.43l16.59,5c16.57,5,23.75,12.56,24,25.34a27.18,27.18,0,0,1-7.66,20.08c-6.86,7-18,10.87-31.28,10.87a92.39,92.39,0,0,1-34.59-7.35L214,70.81c6.59,3.89,17.11,8.63,29.24,8.63,4.62,0,7.86-1,9.91-3.12a8.12,8.12,0,0,0,2.22-6c-.08-3.66-3-6.36-8.5-8l-15.73-4.83c-16.36-5-23.46-12.62-23.75-25.5a25.47,25.47,0,0,1,7.19-18.82C221.19,6.36,231.72,2.78,245,2.78ZM124.3,4.09l.72,33,.06,2.72H138.8l.82-1.27L161.8,4.09h28.45l0,1.23L159.82,49.93l-1.09,1.6,1.13,1.58L191.92,98H161.65L139.21,63.3,138.39,62H125.57l.07,2.84L126.36,98H99.82L97.75,4.09Z"/></g></g></svg>